<svg xmlns="http://www.w3.org/2000/svg" width="70" height="70" viewBox="0 0 70 70" fill="none">
<path d="M65.9167 70C57.8148 70 49.8102 68.2344 41.9028 64.7033C33.9954 61.1722 26.8009 56.1646 20.3194 49.6806C13.838 43.1965 8.83167 36.002 5.30056 28.0972C1.76944 20.1924 0.00259259 12.1878 0 4.08333C0 2.91667 0.388889 1.94444 1.16667 1.16667C1.94444 0.388889 2.91667 0 4.08333 0H19.8333C20.7407 0 21.5509 0.308518 22.2639 0.925555C22.9769 1.54259 23.3981 2.27111 23.5278 3.11111L26.0556 16.7222C26.1852 17.7593 26.1528 18.6343 25.9583 19.3472C25.7639 20.0602 25.4074 20.6759 24.8889 21.1944L15.4583 30.7222C16.7546 33.1204 18.2933 35.4369 20.0744 37.6717C21.8556 39.9065 23.8169 42.0622 25.9583 44.1389C27.9676 46.1481 30.0741 48.0122 32.2778 49.7311C34.4815 51.45 36.8148 53.0211 39.2778 54.4444L48.4167 45.3056C49 44.7222 49.7622 44.2854 50.7033 43.995C51.6444 43.7046 52.5674 43.623 53.4722 43.75L66.8889 46.4722C67.7963 46.7315 68.5417 47.202 69.125 47.8839C69.7083 48.5657 70 49.3267 70 50.1667V65.9167C70 67.0833 69.6111 68.0556 68.8333 68.8333C68.0556 69.6111 67.0833 70 65.9167 70ZM11.7639 23.3333L18.1806 16.9167L16.5278 7.77778H7.875C8.19907 10.4352 8.65278 13.0602 9.23611 15.6528C9.81944 18.2454 10.662 20.8056 11.7639 23.3333ZM46.5694 58.1389C49.0972 59.2407 51.6743 60.1157 54.3006 60.7639C56.9268 61.412 59.5674 61.8333 62.2222 62.0278V53.4722L53.0833 51.625L46.5694 58.1389Z" fill="#EBA9D7"/>
</svg>