<svg xmlns="http://www.w3.org/2000/svg" width="74" height="95" viewBox="0 0 74 95" fill="none">
  <path d="M36.9998 53.819C33.6735 53.819 30.4219 52.8326 27.6561 50.9846C24.8904 49.1366 22.7348 46.51 21.4619 43.4368C20.1889 40.3637 19.8559 36.9821 20.5048 33.7197C21.1537 30.4573 22.7555 27.4606 25.1076 25.1086C27.4596 22.7565 30.4564 21.1547 33.7188 20.5058C36.9812 19.8568 40.3627 20.1899 43.4359 21.4628C46.509 22.7358 49.1356 24.8914 50.9836 27.6571C52.8316 30.4229 53.818 33.6745 53.818 37.0008C53.8127 41.4596 52.039 45.7343 48.8862 48.8871C45.7333 52.04 41.4586 53.8136 36.9998 53.819ZM36.9998 26.9099C35.004 26.9099 33.0531 27.5017 31.3936 28.6105C29.7342 29.7193 28.4408 31.2953 27.677 33.1392C26.9133 34.983 26.7135 37.012 27.1028 38.9694C27.4922 40.9269 28.4532 42.7249 29.8645 44.1361C31.2757 45.5474 33.0737 46.5084 35.0312 46.8978C36.9886 47.2872 39.0176 47.0873 40.8614 46.3236C42.7053 45.5598 44.2813 44.2664 45.3901 42.607C46.4989 40.9476 47.0907 38.9966 47.0907 37.0008C47.0881 34.3253 46.0241 31.7602 44.1322 29.8684C42.2404 27.9766 39.6753 26.9126 36.9998 26.9099Z" fill="#EBA9D7"/>
  <path d="M37 94.1818L8.62438 60.717C8.23009 60.2145 7.8399 59.7088 7.45384 59.2C2.60922 52.8138 -0.00899582 45.0158 2.32231e-05 37C2.32231e-05 27.187 3.89823 17.7759 10.8371 10.837C17.7759 3.8982 27.187 0 37 0C46.813 0 56.2241 3.8982 63.1629 10.837C70.1018 17.7759 74 27.187 74 37C74.0078 45.012 71.3909 52.806 66.5495 59.1899L66.5462 59.2C66.5462 59.2 65.5371 60.5252 65.3857 60.7035L37 94.1818ZM12.8256 55.1468C12.8256 55.1468 13.6093 56.1828 13.7876 56.4048L37 83.7814L60.2427 56.3678C60.3907 56.1828 61.1778 55.1401 61.1812 55.1367C65.1409 49.9202 67.2807 43.5491 67.2727 37C67.2727 28.9712 64.0833 21.2712 58.406 15.5939C52.7288 9.91671 45.0288 6.72727 37 6.72727C28.9712 6.72727 21.2712 9.91671 15.594 15.5939C9.91673 21.2712 6.72729 28.9712 6.72729 37C6.71899 43.5533 8.86134 49.9284 12.8256 55.1468Z" fill="#EBA9D7"/>
</svg>