<svg xmlns="http://www.w3.org/2000/svg" width="74" height="59" viewBox="0 0 74 59" fill="none">
  <path d="M7.4 59C5.365 59 3.62353 58.2785 2.1756 56.8354C0.727667 55.3924 0.00246667 53.6556 0 51.625V7.375C0 5.34687 0.7252 3.61129 2.1756 2.16825C3.626 0.725208 5.36747 0.00245833 7.4 0H66.6C68.635 0 70.3777 0.722749 71.8281 2.16825C73.2785 3.61375 74.0025 5.34933 74 7.375V51.625C74 53.6531 73.276 55.3899 71.8281 56.8354C70.3802 58.2809 68.6375 59.0025 66.6 59H7.4ZM37 33.1875L7.4 14.75V51.625H66.6V14.75L37 33.1875ZM37 25.8125L66.6 7.375H7.4L37 25.8125ZM7.4 14.75V7.375V51.625V14.75Z" fill="#EBA9D7"/>
</svg>