<svg xmlns="http://www.w3.org/2000/svg" width="76" height="76" viewBox="0 0 76 76" fill="none">
  <path d="M38.1528 0.000204801C17.3005 0.000204801 0.305528 16.9102 0.305528 37.6581C0.305528 44.3081 2.06231 50.7681 5.34673 56.4681L0 76L20.0502 70.756C25.5879 73.758 31.8131 75.354 38.1528 75.354C59.005 75.354 76 58.4441 76 37.6961C76 27.6261 72.0663 18.1642 64.9246 11.0582C61.4228 7.53979 57.2521 4.75006 52.6558 2.85157C48.0595 0.953085 43.1294 -0.0162 38.1528 0.000204801ZM38.191 6.34619C46.593 6.34619 54.4603 9.61418 60.4181 15.5422C63.3412 18.4511 65.6588 21.9053 67.2381 25.7068C68.8175 29.5084 69.6276 33.5826 69.6221 37.6961C69.6221 54.9481 55.4915 68.97 38.1528 68.97C32.5005 68.97 26.9628 67.488 22.1508 64.6L21.005 63.954L9.08945 67.07L12.2593 55.5181L11.4955 54.3021C8.34299 49.318 6.67452 43.5471 6.68342 37.6581C6.72161 20.4062 20.8141 6.34619 38.191 6.34619ZM24.7477 20.2542C24.1367 20.2542 23.1055 20.4821 22.2271 21.4321C21.3869 22.3821 18.9045 24.7001 18.9045 29.2981C18.9045 33.9341 22.3035 38.3801 22.7236 39.0261C23.2583 39.6721 29.4452 49.1721 38.9548 53.2001C41.208 54.2261 42.9648 54.7961 44.3397 55.2141C46.593 55.9361 48.6553 55.8221 50.2975 55.5941C52.1306 55.3281 55.8734 53.3141 56.6754 51.1101C57.4774 48.9061 57.4774 47.0441 57.2482 46.6261C56.9809 46.2461 56.3698 46.0181 55.4151 45.6001C54.4603 45.0681 49.801 42.7881 48.9608 42.4841C48.0824 42.1801 47.5477 42.0281 46.8221 42.9401C46.2111 43.8901 44.3779 46.0181 43.8432 46.6261C43.2703 47.2721 42.7357 47.3481 41.8191 46.8921C40.8261 46.3981 37.7709 45.4101 34.1809 42.2181C31.3548 39.7101 29.4834 36.6321 28.9105 35.6821C28.4523 34.7701 28.8724 34.2001 29.3306 33.7821C29.7507 33.3641 30.3618 32.6801 30.7437 32.1101C31.2402 31.5781 31.393 31.1601 31.6985 30.5521C32.004 29.9061 31.8513 29.3741 31.6221 28.9181C31.393 28.5001 29.4834 23.7881 28.6814 21.9261C27.9176 20.1022 27.1538 20.3302 26.5427 20.2922C26.008 20.2922 25.397 20.2542 24.7477 20.2542Z" fill="#EBA9D7"/>
</svg>